{
  "accessors": [
    {
      "bufferView": 2,
      "componentType": 5126,
      "count": 14985,
      "max": [
        3.624469041824341,
        1.209678053855896,
        4.578574180603027
      ],
      "min": [
        -6.735143184661865,
        -5.316116809844971,
        -3.9624381065368652
      ],
      "type": "VEC3"
    },
    {
      "bufferView": 2,
      "byteOffset": 179820,
      "componentType": 5126,
      "count": 14985,
      "max": [
        1.0,
        1.0,
        0.9996195435523987
      ],
      "min": [
        -1.0,
        -1.0,
        -0.9996196627616882
      ],
      "type": "VEC3"
    },
    {
      "bufferView": 3,
      "componentType": 5126,
      "count": 14985,
      "max": [
        1.0,
        1.0,
        1.0,
        1.0
      ],
      "min": [
        -1.0,
        -1.0,
        -1.0,
        1.0
      ],
      "type": "VEC4"
    },
    {
      "bufferView": 1,
      "componentType": 5126,
      "count": 14985,
      "max": [
        0.9995120167732239,
        0.9974539875984192
      ],
      "min": [
        0.0013460000045597553,
        0.0013460000045597553
      ],
      "type": "VEC2"
    },
    {
      "bufferView": 0,
      "componentType": 5125,
      "count": 36354,
      "type": "SCALAR"
    }
  ],
  "asset": {
    "extras": {
      "author": "futaba@blender (https://sketchfab.com/futaba_blender)",
      "license": "CC-BY-4.0 (http://creativecommons.org/licenses/by/4.0/)",
      "source": "https://sketchfab.com/3d-models/sci-fi-lowpoly-prop-crate-3e8553b6c9164867b6132196c1a7c8fb",
      "title": "Sci-Fi lowpoly prop - Crate"
    },
    "generator": "Sketchfab-13.46.0",
    "version": "2.0"
  },
  "bufferViews": [
    {
      "buffer": 0,
      "byteLength": 145416,
      "name": "floatBufferViews",
      "target": 34963
    },
    {
      "buffer": 0,
      "byteLength": 119880,
      "byteOffset": 145416,
      "byteStride": 8,
      "name": "floatBufferViews",
      "target": 34962
    },
    {
      "buffer": 0,
      "byteLength": 359640,
      "byteOffset": 265296,
      "byteStride": 12,
      "name": "floatBufferViews",
      "target": 34962
    },
    {
      "buffer": 0,
      "byteLength": 239760,
      "byteOffset": 624936,
      "byteStride": 16,
      "name": "floatBufferViews",
      "target": 34962
    }
  ],
  "buffers": [
    {
      "byteLength": 864696,
      "uri": "scene.bin"
    }
  ],
  "images": [
    {
      "uri": "textures/Material_baseColor.jpeg"
    },
    {
      "uri": "textures/Material_metallicRoughness.png"
    },
    {
      "uri": "textures/Material_normal.png"
    }
  ],
  "materials": [
    {
      "doubleSided": true,
      "name": "Material",
      "normalTexture": {
        "index": 2
      },
      "occlusionTexture": {
        "index": 1
      },
      "pbrMetallicRoughness": {
        "baseColorTexture": {
          "index": 0
        },
        "metallicRoughnessTexture": {
          "index": 1
        }
      }
    }
  ],
  "meshes": [
    {
      "name": "defaultMaterial",
      "primitives": [
        {
          "attributes": {
            "NORMAL": 1,
            "POSITION": 0,
            "TANGENT": 2,
            "TEXCOORD_0": 3
          },
          "indices": 4,
          "material": 0,
          "mode": 4
        }
      ]
    }
  ],
  "nodes": [
    {
      "children": [
        1
      ],
      "matrix": [
        1.0,
        0.0,
        0.0,
        0.0,
        0.0,
        2.220446049250313e-16,
        -1.0,
        0.0,
        0.0,
        1.0,
        2.220446049250313e-16,
        0.0,
        0.0,
        0.0,
        0.0,
        1.0
      ],
      "name": "Sketchfab_model"
    },
    {
      "children": [
        2
      ],
      "matrix": [
        1.0,
        0.0,
        0.0,
        0.0,
        0.0,
        -4.371139006309477e-08,
        0.999999999999999,
        0.0,
        0.0,
        -0.999999999999999,
        -4.371139006309477e-08,
        0.0,
        0.0,
        0.0,
        0.0,
        1.0
      ],
      "name": "Collada visual scene group"
    },
    {
      "children": [
        3
      ],
      "matrix": [
        -0.37865,
        0.233908,
        0.0,
        0.0,
        0.0,
        0.0,
        0.445071,
        0.0,
        0.233908,
        0.37865,
        0.0,
        0.0,
        -0.65786,
        0.261457,
        0.913829,
        1.0
      ],
      "name": "Cylinder.020_copy_low"
    },
    {
      "mesh": 0,
      "name": "defaultMaterial"
    }
  ],
  "samplers": [
    {
      "magFilter": 9729,
      "minFilter": 9987,
      "wrapS": 10497,
      "wrapT": 10497
    }
  ],
  "scene": 0,
  "scenes": [
    {
      "name": "Sketchfab_Scene",
      "nodes": [
        0
      ]
    }
  ],
  "textures": [
    {
      "sampler": 0,
      "source": 0
    },
    {
      "sampler": 0,
      "source": 1
    },
    {
      "sampler": 0,
      "source": 2
    }
  ]
}
